<svg xmlns="http://www.w3.org/2000/svg" viewBox="0 0 217.04 40.75"><defs><style>.cls-1,.cls-3{fill:#ed1c24;}.cls-1,.cls-2{fill-rule:evenodd;}.cls-2{fill:#939598;}</style></defs><title>Asset 2</title><g id="Layer_2" data-name="Layer 2"><g id="Layer_1-2" data-name="Layer 1"><polygon class="cls-1" points="26.12 30.17 28.33 35.56 30.47 40.75 21.77 40.75 23.91 35.56 26.12 30.17 26.12 30.17"/><path class="cls-2" d="M16.14,2.79c1.59-3.87,7.35-3.57,8.86,0L26.15,5.5c.37-.89.74-1.79,1.11-2.71,1.59-3.87,7.35-3.56,8.87,0l16.11,38H44L31.69,11.85l-1.42,3.37c3.67,8.67,7,16.88,10.68,25.53H32.88C30.63,35.46,28.36,30.23,26.13,25c-2.23,5.26-4.53,10.47-6.79,15.78H11.27C14.94,32.1,18.32,23.94,22,15.27l-1.45-3.42L8.27,40.75H0c3.65-8.6,12.41-28.87,16.14-38Z"/><path class="cls-3" d="M55.76,40.75V6.88H66L72.14,30,78.22,6.88H88.48V40.75H82.13V14.09L75.4,40.75H68.81l-6.7-26.66V40.75Zm39.52,0V6.88h25.11v5.73H102.11v7.51h17v5.7h-17V35H121v5.71Zm39.18,0V12.61H124.41V6.88h26.92v5.73h-10V40.75Zm48.32,0h-7.44l-3-7.69H158.84l-2.79,7.69h-7.26L162,6.88h7.24l13.56,33.87Zm-12.59-13.4-4.67-12.57-4.58,12.57Zm16.31,13.4V6.88h6.84v15l13.81-15h9.2L203.6,20.07,217,40.75H208.2l-9.31-15.9-5.55,5.67V40.75Z"/></g></g></svg>